<mxfile host="Electron" modified="2024-03-23T04:01:35.358Z" agent="Mozilla/5.0 (Windows NT 10.0; Win64; x64) AppleWebKit/537.36 (KHTML, like Gecko) draw.io/24.0.4 Chrome/120.0.6099.109 Electron/28.1.0 Safari/537.36" etag="Z91NHYFvxrMUkXC441Ev" version="24.0.4" type="device">
  <diagram name="Page-1" id="2YBvvXClWsGukQMizWep">
    <mxGraphModel dx="2537" dy="2105" grid="1" gridSize="10" guides="1" tooltips="1" connect="1" arrows="1" fold="1" page="1" pageScale="1" pageWidth="850" pageHeight="1100" math="0" shadow="0">
      <root>
        <mxCell id="0" />
        <mxCell id="1" parent="0" />
        <mxCell id="BkvkmUMkXavDiM1oEpL3-1" value="" style="html=1;points=[];perimeter=orthogonalPerimeter;outlineConnect=0;targetShapes=umlLifeline;portConstraint=eastwest;newEdgeStyle={&quot;edgeStyle&quot;:&quot;elbowEdgeStyle&quot;,&quot;elbow&quot;:&quot;vertical&quot;,&quot;curved&quot;:0,&quot;rounded&quot;:0};" parent="1" vertex="1">
          <mxGeometry x="-50" y="100" width="10" height="860" as="geometry" />
        </mxCell>
        <mxCell id="aM9ryv3xv72pqoxQDRHE-1" value=":GUI" style="shape=umlLifeline;perimeter=lifelinePerimeter;whiteSpace=wrap;html=1;container=0;dropTarget=0;collapsible=0;recursiveResize=0;outlineConnect=0;portConstraint=eastwest;newEdgeStyle={&quot;edgeStyle&quot;:&quot;elbowEdgeStyle&quot;,&quot;elbow&quot;:&quot;vertical&quot;,&quot;curved&quot;:0,&quot;rounded&quot;:0};" parent="1" vertex="1">
          <mxGeometry x="40" y="30" width="100" height="940" as="geometry" />
        </mxCell>
        <mxCell id="SKgXmb6KjHLhrc9L7J1O-16" value="" style="html=1;points=[];perimeter=orthogonalPerimeter;outlineConnect=0;targetShapes=umlLifeline;portConstraint=eastwest;newEdgeStyle={&quot;edgeStyle&quot;:&quot;elbowEdgeStyle&quot;,&quot;elbow&quot;:&quot;vertical&quot;,&quot;curved&quot;:0,&quot;rounded&quot;:0};" vertex="1" parent="aM9ryv3xv72pqoxQDRHE-1">
          <mxGeometry x="45" y="70" width="10" height="60" as="geometry" />
        </mxCell>
        <mxCell id="SKgXmb6KjHLhrc9L7J1O-25" value="" style="html=1;points=[];perimeter=orthogonalPerimeter;outlineConnect=0;targetShapes=umlLifeline;portConstraint=eastwest;newEdgeStyle={&quot;edgeStyle&quot;:&quot;elbowEdgeStyle&quot;,&quot;elbow&quot;:&quot;vertical&quot;,&quot;curved&quot;:0,&quot;rounded&quot;:0};" vertex="1" parent="aM9ryv3xv72pqoxQDRHE-1">
          <mxGeometry x="45" y="150" width="10" height="280" as="geometry" />
        </mxCell>
        <mxCell id="BkvkmUMkXavDiM1oEpL3-13" value="activate&amp;nbsp;&lt;div&gt;&quot;restore&quot; button&lt;/div&gt;" style="html=1;verticalAlign=bottom;endArrow=block;edgeStyle=orthogonalEdgeStyle;elbow=horizontal;rounded=0;" parent="aM9ryv3xv72pqoxQDRHE-1" target="BkvkmUMkXavDiM1oEpL3-14" edge="1">
          <mxGeometry x="0.1763" relative="1" as="geometry">
            <mxPoint x="55" y="225" as="sourcePoint" />
            <Array as="points">
              <mxPoint x="120" y="225" />
              <mxPoint x="120" y="270" />
            </Array>
            <mxPoint x="100" y="289.9985714285715" as="targetPoint" />
            <mxPoint as="offset" />
          </mxGeometry>
        </mxCell>
        <mxCell id="aM9ryv3xv72pqoxQDRHE-6" value="" style="html=1;points=[];perimeter=orthogonalPerimeter;outlineConnect=0;targetShapes=umlLifeline;portConstraint=eastwest;newEdgeStyle={&quot;edgeStyle&quot;:&quot;elbowEdgeStyle&quot;,&quot;elbow&quot;:&quot;vertical&quot;,&quot;curved&quot;:0,&quot;rounded&quot;:0};" parent="aM9ryv3xv72pqoxQDRHE-1" vertex="1">
          <mxGeometry x="225" y="160" width="10" height="40" as="geometry" />
        </mxCell>
        <mxCell id="BkvkmUMkXavDiM1oEpL3-4" value="loop" style="shape=umlFrame;whiteSpace=wrap;html=1;pointerEvents=0;recursiveResize=0;container=1;collapsible=0;width=50;height=20;verticalAlign=middle;" parent="aM9ryv3xv72pqoxQDRHE-1" vertex="1">
          <mxGeometry x="-160" y="140" width="400" height="290" as="geometry" />
        </mxCell>
        <mxCell id="BkvkmUMkXavDiM1oEpL3-5" value="[all fields valid]" style="text;html=1;" parent="BkvkmUMkXavDiM1oEpL3-4" vertex="1">
          <mxGeometry width="100" height="20" relative="1" as="geometry">
            <mxPoint x="10" y="20" as="offset" />
          </mxGeometry>
        </mxCell>
        <mxCell id="BkvkmUMkXavDiM1oEpL3-9" value="alt" style="shape=umlFrame;whiteSpace=wrap;html=1;pointerEvents=0;recursiveResize=0;container=1;collapsible=0;width=50;height=20;" parent="BkvkmUMkXavDiM1oEpL3-4" vertex="1">
          <mxGeometry x="10" y="60" width="320" height="220" as="geometry" />
        </mxCell>
        <mxCell id="BkvkmUMkXavDiM1oEpL3-10" value="[ok]" style="text;html=1;" parent="BkvkmUMkXavDiM1oEpL3-9" vertex="1">
          <mxGeometry width="100" height="20" relative="1" as="geometry">
            <mxPoint x="20" y="40" as="offset" />
          </mxGeometry>
        </mxCell>
        <mxCell id="BkvkmUMkXavDiM1oEpL3-11" value="[else]" style="line;strokeWidth=1;dashed=1;labelPosition=center;verticalLabelPosition=bottom;align=left;verticalAlign=middle;spacingLeft=20;spacingTop=15;html=1;whiteSpace=wrap;" parent="BkvkmUMkXavDiM1oEpL3-9" vertex="1">
          <mxGeometry y="125" width="310" height="10" as="geometry" />
        </mxCell>
        <mxCell id="BkvkmUMkXavDiM1oEpL3-17" value="opt" style="shape=umlFrame;whiteSpace=wrap;html=1;pointerEvents=0;recursiveResize=0;container=1;collapsible=0;width=45;height=25;" parent="BkvkmUMkXavDiM1oEpL3-9" vertex="1">
          <mxGeometry x="70" y="20" width="240" height="80" as="geometry" />
        </mxCell>
        <mxCell id="BkvkmUMkXavDiM1oEpL3-18" value="[all fields valid]" style="text;html=1;" parent="BkvkmUMkXavDiM1oEpL3-17" vertex="1">
          <mxGeometry width="100" height="20" relative="1" as="geometry">
            <mxPoint x="20" y="20" as="offset" />
          </mxGeometry>
        </mxCell>
        <mxCell id="BkvkmUMkXavDiM1oEpL3-24" value="" style="html=1;points=[];perimeter=orthogonalPerimeter;outlineConnect=0;targetShapes=umlLifeline;portConstraint=eastwest;newEdgeStyle={&quot;edgeStyle&quot;:&quot;elbowEdgeStyle&quot;,&quot;elbow&quot;:&quot;vertical&quot;,&quot;curved&quot;:0,&quot;rounded&quot;:0};" parent="BkvkmUMkXavDiM1oEpL3-9" vertex="1">
          <mxGeometry x="200" y="140" width="10" height="60" as="geometry" />
        </mxCell>
        <mxCell id="SKgXmb6KjHLhrc9L7J1O-24" value="" style="html=1;points=[];perimeter=orthogonalPerimeter;outlineConnect=0;targetShapes=umlLifeline;portConstraint=eastwest;newEdgeStyle={&quot;edgeStyle&quot;:&quot;elbowEdgeStyle&quot;,&quot;elbow&quot;:&quot;vertical&quot;,&quot;curved&quot;:0,&quot;rounded&quot;:0};" vertex="1" parent="BkvkmUMkXavDiM1oEpL3-9">
          <mxGeometry x="200" y="140" width="10" height="60" as="geometry" />
        </mxCell>
        <mxCell id="aM9ryv3xv72pqoxQDRHE-7" value="fill in" style="html=1;verticalAlign=bottom;endArrow=block;edgeStyle=elbowEdgeStyle;elbow=horizontal;curved=0;rounded=0;" parent="aM9ryv3xv72pqoxQDRHE-1" edge="1">
          <mxGeometry relative="1" as="geometry">
            <mxPoint x="-80" y="160" as="sourcePoint" />
            <Array as="points">
              <mxPoint x="15" y="160" />
            </Array>
            <mxPoint x="45" y="160" as="targetPoint" />
          </mxGeometry>
        </mxCell>
        <mxCell id="BkvkmUMkXavDiM1oEpL3-8" value="pass data" style="html=1;verticalAlign=bottom;endArrow=block;edgeStyle=elbowEdgeStyle;elbow=horizontal;curved=0;rounded=0;" parent="aM9ryv3xv72pqoxQDRHE-1" target="aM9ryv3xv72pqoxQDRHE-6" edge="1">
          <mxGeometry relative="1" as="geometry">
            <mxPoint x="55" y="170" as="sourcePoint" />
            <Array as="points">
              <mxPoint x="90" y="170" />
            </Array>
            <mxPoint x="55" y="170" as="targetPoint" />
          </mxGeometry>
        </mxCell>
        <mxCell id="BkvkmUMkXavDiM1oEpL3-21" value="color field in green" style="html=1;verticalAlign=bottom;endArrow=open;dashed=1;endSize=8;edgeStyle=elbowEdgeStyle;elbow=vertical;curved=0;rounded=0;" parent="aM9ryv3xv72pqoxQDRHE-1" edge="1">
          <mxGeometry relative="1" as="geometry">
            <mxPoint x="-80" y="320" as="targetPoint" />
            <Array as="points">
              <mxPoint x="-30" y="320" />
            </Array>
            <mxPoint x="45" y="320" as="sourcePoint" />
          </mxGeometry>
        </mxCell>
        <mxCell id="BkvkmUMkXavDiM1oEpL3-22" value="color field in red" style="html=1;verticalAlign=bottom;endArrow=open;dashed=1;endSize=8;edgeStyle=elbowEdgeStyle;elbow=vertical;curved=0;rounded=0;" parent="aM9ryv3xv72pqoxQDRHE-1" edge="1">
          <mxGeometry relative="1" as="geometry">
            <mxPoint x="-80" y="410" as="targetPoint" />
            <Array as="points">
              <mxPoint x="-20" y="410" />
            </Array>
            <mxPoint x="45" y="410" as="sourcePoint" />
          </mxGeometry>
        </mxCell>
        <mxCell id="BkvkmUMkXavDiM1oEpL3-23" value="deactivate&amp;nbsp;&lt;div&gt;&quot;restore&quot; button&lt;/div&gt;" style="html=1;verticalAlign=bottom;endArrow=block;edgeStyle=orthogonalEdgeStyle;elbow=horizontal;rounded=0;" parent="aM9ryv3xv72pqoxQDRHE-1" target="BkvkmUMkXavDiM1oEpL3-24" edge="1">
          <mxGeometry x="0.1763" relative="1" as="geometry">
            <mxPoint x="55" y="335" as="sourcePoint" />
            <Array as="points">
              <mxPoint x="110" y="335" />
              <mxPoint x="110" y="380" />
            </Array>
            <mxPoint x="90" y="399.9985714285715" as="targetPoint" />
            <mxPoint as="offset" />
          </mxGeometry>
        </mxCell>
        <mxCell id="BkvkmUMkXavDiM1oEpL3-14" value="" style="html=1;points=[];perimeter=orthogonalPerimeter;outlineConnect=0;targetShapes=umlLifeline;portConstraint=eastwest;newEdgeStyle={&quot;edgeStyle&quot;:&quot;elbowEdgeStyle&quot;,&quot;elbow&quot;:&quot;vertical&quot;,&quot;curved&quot;:0,&quot;rounded&quot;:0};" parent="aM9ryv3xv72pqoxQDRHE-1" vertex="1">
          <mxGeometry x="50" y="230" width="10" height="60" as="geometry" />
        </mxCell>
        <mxCell id="aM9ryv3xv72pqoxQDRHE-8" value="validation result" style="html=1;verticalAlign=bottom;endArrow=open;dashed=1;endSize=8;edgeStyle=elbowEdgeStyle;elbow=vertical;curved=0;rounded=0;" parent="aM9ryv3xv72pqoxQDRHE-1" source="aM9ryv3xv72pqoxQDRHE-6" edge="1">
          <mxGeometry relative="1" as="geometry">
            <mxPoint x="55" y="194.71000000000004" as="targetPoint" />
            <Array as="points">
              <mxPoint x="115" y="194.7099999999998" />
            </Array>
            <mxPoint x="190" y="199.92999999999984" as="sourcePoint" />
          </mxGeometry>
        </mxCell>
        <mxCell id="aM9ryv3xv72pqoxQDRHE-5" value=":GUI validation" style="shape=umlLifeline;perimeter=lifelinePerimeter;whiteSpace=wrap;html=1;container=0;dropTarget=0;collapsible=0;recursiveResize=0;outlineConnect=0;portConstraint=eastwest;newEdgeStyle={&quot;edgeStyle&quot;:&quot;elbowEdgeStyle&quot;,&quot;elbow&quot;:&quot;vertical&quot;,&quot;curved&quot;:0,&quot;rounded&quot;:0};" parent="1" vertex="1">
          <mxGeometry x="220" y="30" width="100" height="940" as="geometry" />
        </mxCell>
        <mxCell id="QLpWfq_dHeG4VFFPkYtZ-1" value="Actor" style="shape=umlActor;verticalLabelPosition=bottom;verticalAlign=top;html=1;outlineConnect=0;" parent="1" vertex="1">
          <mxGeometry x="-60" y="-10" width="30" height="60" as="geometry" />
        </mxCell>
        <mxCell id="QLpWfq_dHeG4VFFPkYtZ-3" value="" style="endArrow=none;dashed=1;html=1;rounded=0;" parent="1" source="BkvkmUMkXavDiM1oEpL3-1" edge="1">
          <mxGeometry width="50" height="50" relative="1" as="geometry">
            <mxPoint x="-45" y="620" as="sourcePoint" />
            <mxPoint x="-45" y="70" as="targetPoint" />
          </mxGeometry>
        </mxCell>
        <mxCell id="QLpWfq_dHeG4VFFPkYtZ-4" value=":Command handler" style="shape=umlLifeline;perimeter=lifelinePerimeter;whiteSpace=wrap;html=1;container=0;dropTarget=0;collapsible=0;recursiveResize=0;outlineConnect=0;portConstraint=eastwest;newEdgeStyle={&quot;edgeStyle&quot;:&quot;elbowEdgeStyle&quot;,&quot;elbow&quot;:&quot;vertical&quot;,&quot;curved&quot;:0,&quot;rounded&quot;:0};" parent="1" vertex="1">
          <mxGeometry x="380" y="30" width="100" height="940" as="geometry" />
        </mxCell>
        <mxCell id="SKgXmb6KjHLhrc9L7J1O-4" value="" style="html=1;points=[];perimeter=orthogonalPerimeter;outlineConnect=0;targetShapes=umlLifeline;portConstraint=eastwest;newEdgeStyle={&quot;edgeStyle&quot;:&quot;elbowEdgeStyle&quot;,&quot;elbow&quot;:&quot;vertical&quot;,&quot;curved&quot;:0,&quot;rounded&quot;:0};" vertex="1" parent="QLpWfq_dHeG4VFFPkYtZ-4">
          <mxGeometry x="45" y="70" width="10" height="240" as="geometry" />
        </mxCell>
        <mxCell id="QLpWfq_dHeG4VFFPkYtZ-6" value=":Server validation" style="shape=umlLifeline;perimeter=lifelinePerimeter;whiteSpace=wrap;html=1;container=0;dropTarget=0;collapsible=0;recursiveResize=0;outlineConnect=0;portConstraint=eastwest;newEdgeStyle={&quot;edgeStyle&quot;:&quot;elbowEdgeStyle&quot;,&quot;elbow&quot;:&quot;vertical&quot;,&quot;curved&quot;:0,&quot;rounded&quot;:0};" parent="1" vertex="1">
          <mxGeometry x="540" y="30" width="100" height="940" as="geometry" />
        </mxCell>
        <mxCell id="SKgXmb6KjHLhrc9L7J1O-5" value="" style="html=1;points=[];perimeter=orthogonalPerimeter;outlineConnect=0;targetShapes=umlLifeline;portConstraint=eastwest;newEdgeStyle={&quot;edgeStyle&quot;:&quot;elbowEdgeStyle&quot;,&quot;elbow&quot;:&quot;vertical&quot;,&quot;curved&quot;:0,&quot;rounded&quot;:0};" vertex="1" parent="QLpWfq_dHeG4VFFPkYtZ-6">
          <mxGeometry x="45" y="80" width="10" height="210" as="geometry" />
        </mxCell>
        <mxCell id="QLpWfq_dHeG4VFFPkYtZ-8" value=":DB connector" style="shape=umlLifeline;perimeter=lifelinePerimeter;whiteSpace=wrap;html=1;container=0;dropTarget=0;collapsible=0;recursiveResize=0;outlineConnect=0;portConstraint=eastwest;newEdgeStyle={&quot;edgeStyle&quot;:&quot;elbowEdgeStyle&quot;,&quot;elbow&quot;:&quot;vertical&quot;,&quot;curved&quot;:0,&quot;rounded&quot;:0};" parent="1" vertex="1">
          <mxGeometry x="680" y="30" width="100" height="940" as="geometry" />
        </mxCell>
        <mxCell id="SKgXmb6KjHLhrc9L7J1O-6" value="" style="html=1;points=[];perimeter=orthogonalPerimeter;outlineConnect=0;targetShapes=umlLifeline;portConstraint=eastwest;newEdgeStyle={&quot;edgeStyle&quot;:&quot;elbowEdgeStyle&quot;,&quot;elbow&quot;:&quot;vertical&quot;,&quot;curved&quot;:0,&quot;rounded&quot;:0};" vertex="1" parent="QLpWfq_dHeG4VFFPkYtZ-8">
          <mxGeometry x="45" y="80" width="10" height="80" as="geometry" />
        </mxCell>
        <mxCell id="QLpWfq_dHeG4VFFPkYtZ-10" value=":DB" style="shape=umlLifeline;perimeter=lifelinePerimeter;whiteSpace=wrap;html=1;container=0;dropTarget=0;collapsible=0;recursiveResize=0;outlineConnect=0;portConstraint=eastwest;newEdgeStyle={&quot;edgeStyle&quot;:&quot;elbowEdgeStyle&quot;,&quot;elbow&quot;:&quot;vertical&quot;,&quot;curved&quot;:0,&quot;rounded&quot;:0};" parent="1" vertex="1">
          <mxGeometry x="830" y="30" width="100" height="940" as="geometry" />
        </mxCell>
        <mxCell id="SKgXmb6KjHLhrc9L7J1O-7" value="" style="html=1;points=[];perimeter=orthogonalPerimeter;outlineConnect=0;targetShapes=umlLifeline;portConstraint=eastwest;newEdgeStyle={&quot;edgeStyle&quot;:&quot;elbowEdgeStyle&quot;,&quot;elbow&quot;:&quot;vertical&quot;,&quot;curved&quot;:0,&quot;rounded&quot;:0};" vertex="1" parent="QLpWfq_dHeG4VFFPkYtZ-10">
          <mxGeometry x="45" y="100" width="10" height="40" as="geometry" />
        </mxCell>
        <mxCell id="BkvkmUMkXavDiM1oEpL3-3" value="click&amp;nbsp;&lt;div&gt;&quot;restore password&quot;&lt;/div&gt;" style="html=1;verticalAlign=bottom;endArrow=block;edgeStyle=elbowEdgeStyle;elbow=horizontal;curved=0;rounded=0;" parent="1" edge="1" target="SKgXmb6KjHLhrc9L7J1O-16">
          <mxGeometry relative="1" as="geometry">
            <mxPoint x="-40" y="110" as="sourcePoint" />
            <Array as="points">
              <mxPoint x="20" y="110" />
            </Array>
            <mxPoint x="85" y="110" as="targetPoint" />
          </mxGeometry>
        </mxCell>
        <mxCell id="SKgXmb6KjHLhrc9L7J1O-8" value="request validation" style="html=1;verticalAlign=bottom;endArrow=block;edgeStyle=elbowEdgeStyle;elbow=horizontal;curved=0;rounded=0;" edge="1" parent="1" source="SKgXmb6KjHLhrc9L7J1O-4" target="SKgXmb6KjHLhrc9L7J1O-5">
          <mxGeometry relative="1" as="geometry">
            <mxPoint x="-30" y="120" as="sourcePoint" />
            <Array as="points">
              <mxPoint x="510" y="120" />
            </Array>
            <mxPoint x="435" y="120" as="targetPoint" />
          </mxGeometry>
        </mxCell>
        <mxCell id="SKgXmb6KjHLhrc9L7J1O-9" value="get user" style="html=1;verticalAlign=bottom;endArrow=block;edgeStyle=elbowEdgeStyle;elbow=horizontal;curved=0;rounded=0;" edge="1" parent="1" source="SKgXmb6KjHLhrc9L7J1O-5" target="SKgXmb6KjHLhrc9L7J1O-6">
          <mxGeometry relative="1" as="geometry">
            <mxPoint x="445" y="130" as="sourcePoint" />
            <Array as="points">
              <mxPoint x="660" y="130" />
            </Array>
            <mxPoint x="600" y="130" as="targetPoint" />
          </mxGeometry>
        </mxCell>
        <mxCell id="SKgXmb6KjHLhrc9L7J1O-10" value="get user data" style="html=1;verticalAlign=bottom;endArrow=block;edgeStyle=elbowEdgeStyle;elbow=vertical;curved=0;rounded=0;" edge="1" parent="1">
          <mxGeometry relative="1" as="geometry">
            <mxPoint x="735" y="139" as="sourcePoint" />
            <Array as="points">
              <mxPoint x="810" y="139" />
            </Array>
            <mxPoint x="875" y="139" as="targetPoint" />
          </mxGeometry>
        </mxCell>
        <mxCell id="SKgXmb6KjHLhrc9L7J1O-11" value="result" style="html=1;verticalAlign=bottom;endArrow=open;dashed=1;endSize=8;edgeStyle=elbowEdgeStyle;elbow=vertical;curved=0;rounded=0;" edge="1" parent="1">
          <mxGeometry relative="1" as="geometry">
            <mxPoint x="735" y="159" as="targetPoint" />
            <Array as="points">
              <mxPoint x="800" y="159" />
            </Array>
            <mxPoint x="875" y="159" as="sourcePoint" />
          </mxGeometry>
        </mxCell>
        <mxCell id="SKgXmb6KjHLhrc9L7J1O-12" value="result" style="html=1;verticalAlign=bottom;endArrow=open;dashed=1;endSize=8;edgeStyle=elbowEdgeStyle;elbow=horizontal;curved=0;rounded=0;" edge="1" parent="1">
          <mxGeometry relative="1" as="geometry">
            <mxPoint x="595" y="170" as="targetPoint" />
            <Array as="points">
              <mxPoint x="670" y="170" />
            </Array>
            <mxPoint x="725" y="170" as="sourcePoint" />
          </mxGeometry>
        </mxCell>
        <mxCell id="SKgXmb6KjHLhrc9L7J1O-23" value="" style="html=1;points=[];perimeter=orthogonalPerimeter;outlineConnect=0;targetShapes=umlLifeline;portConstraint=eastwest;newEdgeStyle={&quot;edgeStyle&quot;:&quot;elbowEdgeStyle&quot;,&quot;elbow&quot;:&quot;vertical&quot;,&quot;curved&quot;:0,&quot;rounded&quot;:0};" vertex="1" parent="1">
          <mxGeometry x="85" y="480.28999999999996" width="10" height="460" as="geometry" />
        </mxCell>
        <mxCell id="SKgXmb6KjHLhrc9L7J1O-15" value="success" style="html=1;verticalAlign=bottom;endArrow=open;dashed=1;endSize=8;edgeStyle=elbowEdgeStyle;elbow=vertical;curved=0;rounded=0;" edge="1" parent="1">
          <mxGeometry relative="1" as="geometry">
            <mxPoint x="435" y="300" as="targetPoint" />
            <Array as="points">
              <mxPoint x="520" y="300" />
            </Array>
            <mxPoint x="585" y="300" as="sourcePoint" />
          </mxGeometry>
        </mxCell>
        <mxCell id="SKgXmb6KjHLhrc9L7J1O-13" value="error" style="html=1;verticalAlign=bottom;endArrow=open;dashed=1;endSize=8;edgeStyle=elbowEdgeStyle;elbow=vertical;curved=0;rounded=0;" edge="1" parent="1">
          <mxGeometry relative="1" as="geometry">
            <mxPoint x="435" y="200" as="targetPoint" />
            <Array as="points">
              <mxPoint x="520" y="200" />
            </Array>
            <mxPoint x="585" y="200" as="sourcePoint" />
          </mxGeometry>
        </mxCell>
        <mxCell id="SKgXmb6KjHLhrc9L7J1O-17" value="&quot;restore password&quot;&lt;div&gt;page&lt;/div&gt;" style="html=1;verticalAlign=bottom;endArrow=open;dashed=1;endSize=8;edgeStyle=elbowEdgeStyle;elbow=vertical;curved=0;rounded=0;" edge="1" parent="1">
          <mxGeometry relative="1" as="geometry">
            <mxPoint x="-40" y="150" as="targetPoint" />
            <Array as="points">
              <mxPoint x="30" y="150" />
            </Array>
            <mxPoint x="85" y="150" as="sourcePoint" />
          </mxGeometry>
        </mxCell>
        <mxCell id="QLpWfq_dHeG4VFFPkYtZ-5" value="" style="html=1;points=[];perimeter=orthogonalPerimeter;outlineConnect=0;targetShapes=umlLifeline;portConstraint=eastwest;newEdgeStyle={&quot;edgeStyle&quot;:&quot;elbowEdgeStyle&quot;,&quot;elbow&quot;:&quot;vertical&quot;,&quot;curved&quot;:0,&quot;rounded&quot;:0};" parent="1" vertex="1">
          <mxGeometry x="425" y="480.28999999999996" width="10" height="330" as="geometry" />
        </mxCell>
        <mxCell id="QLpWfq_dHeG4VFFPkYtZ-7" value="" style="html=1;points=[];perimeter=orthogonalPerimeter;outlineConnect=0;targetShapes=umlLifeline;portConstraint=eastwest;newEdgeStyle={&quot;edgeStyle&quot;:&quot;elbowEdgeStyle&quot;,&quot;elbow&quot;:&quot;vertical&quot;,&quot;curved&quot;:0,&quot;rounded&quot;:0};" parent="1" vertex="1">
          <mxGeometry x="585" y="500.28999999999996" width="10" height="260" as="geometry" />
        </mxCell>
        <mxCell id="QLpWfq_dHeG4VFFPkYtZ-9" value="" style="html=1;points=[];perimeter=orthogonalPerimeter;outlineConnect=0;targetShapes=umlLifeline;portConstraint=eastwest;newEdgeStyle={&quot;edgeStyle&quot;:&quot;elbowEdgeStyle&quot;,&quot;elbow&quot;:&quot;vertical&quot;,&quot;curved&quot;:0,&quot;rounded&quot;:0};" parent="1" vertex="1">
          <mxGeometry x="725" y="520.29" width="10" height="100" as="geometry" />
        </mxCell>
        <mxCell id="QLpWfq_dHeG4VFFPkYtZ-11" value="" style="html=1;points=[];perimeter=orthogonalPerimeter;outlineConnect=0;targetShapes=umlLifeline;portConstraint=eastwest;newEdgeStyle={&quot;edgeStyle&quot;:&quot;elbowEdgeStyle&quot;,&quot;elbow&quot;:&quot;vertical&quot;,&quot;curved&quot;:0,&quot;rounded&quot;:0};" parent="1" vertex="1">
          <mxGeometry x="875" y="540.29" width="10" height="80" as="geometry" />
        </mxCell>
        <mxCell id="BkvkmUMkXavDiM1oEpL3-26" value="restore password" style="html=1;verticalAlign=bottom;endArrow=block;edgeStyle=elbowEdgeStyle;elbow=vertical;curved=0;rounded=0;" parent="1" edge="1">
          <mxGeometry relative="1" as="geometry">
            <mxPoint x="-40" y="480.28999999999996" as="sourcePoint" />
            <Array as="points" />
            <mxPoint x="85" y="480.28999999999996" as="targetPoint" />
          </mxGeometry>
        </mxCell>
        <mxCell id="BkvkmUMkXavDiM1oEpL3-27" value="HTTP-request" style="html=1;verticalAlign=bottom;endArrow=block;elbow=horizontal;rounded=0;" parent="1" edge="1">
          <mxGeometry relative="1" as="geometry">
            <mxPoint x="95" y="490.28999999999996" as="sourcePoint" />
            <mxPoint x="425" y="490.28999999999996" as="targetPoint" />
          </mxGeometry>
        </mxCell>
        <mxCell id="BkvkmUMkXavDiM1oEpL3-28" value="request validation" style="html=1;verticalAlign=bottom;endArrow=block;elbow=horizontal;rounded=0;" parent="1" target="QLpWfq_dHeG4VFFPkYtZ-7" edge="1">
          <mxGeometry relative="1" as="geometry">
            <mxPoint x="440" y="510.28999999999996" as="sourcePoint" />
            <Array as="points">
              <mxPoint x="585" y="510.28999999999996" />
            </Array>
            <mxPoint x="590" y="510.28999999999996" as="targetPoint" />
          </mxGeometry>
        </mxCell>
        <mxCell id="BkvkmUMkXavDiM1oEpL3-29" value="get user" style="html=1;verticalAlign=bottom;endArrow=block;elbow=horizontal;rounded=0;" parent="1" source="QLpWfq_dHeG4VFFPkYtZ-7" target="QLpWfq_dHeG4VFFPkYtZ-9" edge="1">
          <mxGeometry relative="1" as="geometry">
            <mxPoint x="450" y="520.29" as="sourcePoint" />
            <Array as="points">
              <mxPoint x="670" y="530.29" />
            </Array>
            <mxPoint x="595" y="520.29" as="targetPoint" />
          </mxGeometry>
        </mxCell>
        <mxCell id="BkvkmUMkXavDiM1oEpL3-30" value="get user data" style="html=1;verticalAlign=bottom;endArrow=block;elbow=horizontal;rounded=0;" parent="1" edge="1">
          <mxGeometry relative="1" as="geometry">
            <mxPoint x="735" y="554.81" as="sourcePoint" />
            <Array as="points" />
            <mxPoint x="875" y="554.81" as="targetPoint" />
          </mxGeometry>
        </mxCell>
        <mxCell id="BkvkmUMkXavDiM1oEpL3-31" value="result" style="html=1;verticalAlign=bottom;endArrow=open;dashed=1;endSize=8;edgeStyle=elbowEdgeStyle;elbow=vertical;curved=0;rounded=0;" parent="1" source="QLpWfq_dHeG4VFFPkYtZ-11" target="QLpWfq_dHeG4VFFPkYtZ-9" edge="1">
          <mxGeometry relative="1" as="geometry">
            <mxPoint x="760" y="610.29" as="targetPoint" />
            <Array as="points">
              <mxPoint x="835" y="610.29" />
            </Array>
            <mxPoint x="900" y="610.29" as="sourcePoint" />
          </mxGeometry>
        </mxCell>
        <mxCell id="BkvkmUMkXavDiM1oEpL3-32" value="alt" style="shape=umlFrame;whiteSpace=wrap;html=1;pointerEvents=0;recursiveResize=0;container=1;collapsible=0;width=70;height=20;" parent="1" vertex="1">
          <mxGeometry x="330" y="630.29" width="580" height="149.71" as="geometry" />
        </mxCell>
        <mxCell id="BkvkmUMkXavDiM1oEpL3-33" value="[user found]" style="text;html=1;" parent="BkvkmUMkXavDiM1oEpL3-32" vertex="1">
          <mxGeometry width="100" height="20" relative="1" as="geometry">
            <mxPoint x="10" y="30" as="offset" />
          </mxGeometry>
        </mxCell>
        <mxCell id="BkvkmUMkXavDiM1oEpL3-34" value="[else]" style="line;strokeWidth=1;dashed=1;labelPosition=center;verticalLabelPosition=bottom;align=left;verticalAlign=top;spacingLeft=20;spacingTop=15;html=1;whiteSpace=wrap;" parent="BkvkmUMkXavDiM1oEpL3-32" vertex="1">
          <mxGeometry y="95" width="580" height="10" as="geometry" />
        </mxCell>
        <mxCell id="BkvkmUMkXavDiM1oEpL3-40" value="result" style="html=1;verticalAlign=bottom;endArrow=open;dashed=1;endSize=8;edgeStyle=elbowEdgeStyle;elbow=vertical;curved=0;rounded=0;" parent="BkvkmUMkXavDiM1oEpL3-32" edge="1" source="SKgXmb6KjHLhrc9L7J1O-28">
          <mxGeometry relative="1" as="geometry">
            <mxPoint x="105" y="90" as="targetPoint" />
            <Array as="points">
              <mxPoint x="290" y="90" />
            </Array>
            <mxPoint x="395" y="90" as="sourcePoint" />
          </mxGeometry>
        </mxCell>
        <mxCell id="BkvkmUMkXavDiM1oEpL3-41" value="result" style="html=1;verticalAlign=bottom;endArrow=open;dashed=1;endSize=8;edgeStyle=elbowEdgeStyle;elbow=vertical;curved=0;rounded=0;" parent="BkvkmUMkXavDiM1oEpL3-32" edge="1">
          <mxGeometry relative="1" as="geometry">
            <mxPoint x="105" y="119.71000000000004" as="targetPoint" />
            <Array as="points">
              <mxPoint x="205" y="119.71000000000004" />
            </Array>
            <mxPoint x="255" y="119.71000000000004" as="sourcePoint" />
          </mxGeometry>
        </mxCell>
        <mxCell id="BkvkmUMkXavDiM1oEpL3-38" value="result" style="html=1;verticalAlign=bottom;endArrow=open;dashed=1;endSize=8;edgeStyle=elbowEdgeStyle;elbow=vertical;curved=0;rounded=0;" parent="1" source="QLpWfq_dHeG4VFFPkYtZ-9" target="QLpWfq_dHeG4VFFPkYtZ-7" edge="1">
          <mxGeometry relative="1" as="geometry">
            <mxPoint x="745" y="620.29" as="targetPoint" />
            <Array as="points">
              <mxPoint x="660" y="620.29" />
            </Array>
            <mxPoint x="885" y="620.29" as="sourcePoint" />
          </mxGeometry>
        </mxCell>
        <mxCell id="BkvkmUMkXavDiM1oEpL3-42" value="result" style="html=1;verticalAlign=bottom;endArrow=open;dashed=1;endSize=8;edgeStyle=elbowEdgeStyle;elbow=vertical;curved=0;rounded=0;" parent="1" source="QLpWfq_dHeG4VFFPkYtZ-5" edge="1">
          <mxGeometry relative="1" as="geometry">
            <mxPoint x="95" y="800.29" as="targetPoint" />
            <Array as="points">
              <mxPoint x="330" y="800.29" />
            </Array>
            <mxPoint x="585" y="800.29" as="sourcePoint" />
          </mxGeometry>
        </mxCell>
        <mxCell id="BkvkmUMkXavDiM1oEpL3-35" value="send email" style="html=1;verticalAlign=bottom;endArrow=block;elbow=horizontal;rounded=0;" parent="1" source="QLpWfq_dHeG4VFFPkYtZ-5" target="SKgXmb6KjHLhrc9L7J1O-28" edge="1">
          <mxGeometry relative="1" as="geometry">
            <mxPoint x="440" y="670.29" as="sourcePoint" />
            <Array as="points">
              <mxPoint x="530" y="670.29" />
            </Array>
            <mxPoint x="725" y="670.29" as="targetPoint" />
          </mxGeometry>
        </mxCell>
        <mxCell id="BkvkmUMkXavDiM1oEpL3-2" value="" style="endArrow=none;dashed=1;html=1;rounded=0;" parent="1" edge="1">
          <mxGeometry width="50" height="50" relative="1" as="geometry">
            <mxPoint x="-45" y="960.29" as="sourcePoint" />
            <mxPoint x="-45" y="990" as="targetPoint" />
            <Array as="points" />
          </mxGeometry>
        </mxCell>
        <mxCell id="BkvkmUMkXavDiM1oEpL3-43" value="alt" style="shape=umlFrame;whiteSpace=wrap;html=1;pointerEvents=0;recursiveResize=0;container=1;collapsible=0;width=55;height=15;" parent="1" vertex="1">
          <mxGeometry x="-140" y="770.29" width="330" height="180" as="geometry" />
        </mxCell>
        <mxCell id="BkvkmUMkXavDiM1oEpL3-44" value="[success]" style="text;html=1;" parent="BkvkmUMkXavDiM1oEpL3-43" vertex="1">
          <mxGeometry width="100" height="20" relative="1" as="geometry">
            <mxPoint x="20" y="40" as="offset" />
          </mxGeometry>
        </mxCell>
        <mxCell id="BkvkmUMkXavDiM1oEpL3-45" value="[else]" style="line;strokeWidth=1;dashed=1;labelPosition=center;verticalLabelPosition=bottom;align=left;verticalAlign=top;spacingLeft=20;spacingTop=15;html=1;whiteSpace=wrap;" parent="BkvkmUMkXavDiM1oEpL3-43" vertex="1">
          <mxGeometry y="125" width="330" height="10" as="geometry" />
        </mxCell>
        <mxCell id="BkvkmUMkXavDiM1oEpL3-46" value="" style="html=1;points=[];perimeter=orthogonalPerimeter;outlineConnect=0;targetShapes=umlLifeline;portConstraint=eastwest;newEdgeStyle={&quot;edgeStyle&quot;:&quot;elbowEdgeStyle&quot;,&quot;elbow&quot;:&quot;vertical&quot;,&quot;curved&quot;:0,&quot;rounded&quot;:0};" parent="BkvkmUMkXavDiM1oEpL3-43" vertex="1">
          <mxGeometry x="229.94" y="45" width="10" height="60" as="geometry" />
        </mxCell>
        <mxCell id="BkvkmUMkXavDiM1oEpL3-47" value="redirect to&amp;nbsp;&lt;div&gt;&quot;sent email&quot; page&lt;/div&gt;" style="html=1;verticalAlign=bottom;endArrow=block;edgeStyle=orthogonalEdgeStyle;elbow=horizontal;rounded=0;" parent="BkvkmUMkXavDiM1oEpL3-43" target="BkvkmUMkXavDiM1oEpL3-46" edge="1">
          <mxGeometry x="0.1763" relative="1" as="geometry">
            <mxPoint x="234.94" y="40" as="sourcePoint" />
            <Array as="points">
              <mxPoint x="289.94" y="40" />
              <mxPoint x="289.94" y="85" />
            </Array>
            <mxPoint x="269.94" y="104.9985714285715" as="targetPoint" />
            <mxPoint as="offset" />
          </mxGeometry>
        </mxCell>
        <mxCell id="BkvkmUMkXavDiM1oEpL3-49" value="error" style="html=1;verticalAlign=bottom;endArrow=open;dashed=1;endSize=8;edgeStyle=elbowEdgeStyle;elbow=vertical;curved=0;rounded=0;" parent="BkvkmUMkXavDiM1oEpL3-43" edge="1">
          <mxGeometry relative="1" as="geometry">
            <mxPoint x="100" y="150" as="targetPoint" />
            <Array as="points">
              <mxPoint x="172.5" y="150" />
            </Array>
            <mxPoint x="225" y="150" as="sourcePoint" />
          </mxGeometry>
        </mxCell>
        <mxCell id="BkvkmUMkXavDiM1oEpL3-48" value="&quot;sent email&quot; page" style="html=1;verticalAlign=bottom;endArrow=open;dashed=1;endSize=8;edgeStyle=elbowEdgeStyle;elbow=vertical;curved=0;rounded=0;" parent="BkvkmUMkXavDiM1oEpL3-43" edge="1">
          <mxGeometry relative="1" as="geometry">
            <mxPoint x="102.5" y="120" as="targetPoint" />
            <Array as="points">
              <mxPoint x="162.5" y="120" />
            </Array>
            <mxPoint x="227.5" y="120" as="sourcePoint" />
          </mxGeometry>
        </mxCell>
        <mxCell id="BkvkmUMkXavDiM1oEpL3-39" value="success" style="html=1;verticalAlign=bottom;endArrow=open;dashed=1;endSize=8;edgeStyle=elbowEdgeStyle;elbow=vertical;curved=0;rounded=0;" parent="1" source="QLpWfq_dHeG4VFFPkYtZ-7" target="QLpWfq_dHeG4VFFPkYtZ-5" edge="1">
          <mxGeometry relative="1" as="geometry">
            <mxPoint x="440" y="650" as="targetPoint" />
            <Array as="points">
              <mxPoint x="525" y="650" />
            </Array>
            <mxPoint x="590" y="650" as="sourcePoint" />
          </mxGeometry>
        </mxCell>
        <mxCell id="SKgXmb6KjHLhrc9L7J1O-27" value=":Mail service&lt;div&gt;connector&lt;/div&gt;" style="shape=umlLifeline;perimeter=lifelinePerimeter;whiteSpace=wrap;html=1;container=0;dropTarget=0;collapsible=0;recursiveResize=0;outlineConnect=0;portConstraint=eastwest;newEdgeStyle={&quot;edgeStyle&quot;:&quot;elbowEdgeStyle&quot;,&quot;elbow&quot;:&quot;vertical&quot;,&quot;curved&quot;:0,&quot;rounded&quot;:0};" vertex="1" parent="1">
          <mxGeometry x="990" y="30" width="100" height="940" as="geometry" />
        </mxCell>
        <mxCell id="SKgXmb6KjHLhrc9L7J1O-28" value="" style="html=1;points=[];perimeter=orthogonalPerimeter;outlineConnect=0;targetShapes=umlLifeline;portConstraint=eastwest;newEdgeStyle={&quot;edgeStyle&quot;:&quot;elbowEdgeStyle&quot;,&quot;elbow&quot;:&quot;vertical&quot;,&quot;curved&quot;:0,&quot;rounded&quot;:0};" vertex="1" parent="SKgXmb6KjHLhrc9L7J1O-27">
          <mxGeometry x="45" y="620" width="10" height="80" as="geometry" />
        </mxCell>
        <mxCell id="SKgXmb6KjHLhrc9L7J1O-29" value="Actor" style="shape=umlActor;verticalLabelPosition=bottom;verticalAlign=top;html=1;outlineConnect=0;" vertex="1" parent="1">
          <mxGeometry x="1130" y="-10" width="30" height="60" as="geometry" />
        </mxCell>
        <mxCell id="SKgXmb6KjHLhrc9L7J1O-30" value="" style="html=1;points=[];perimeter=orthogonalPerimeter;outlineConnect=0;targetShapes=umlLifeline;portConstraint=eastwest;newEdgeStyle={&quot;edgeStyle&quot;:&quot;elbowEdgeStyle&quot;,&quot;elbow&quot;:&quot;vertical&quot;,&quot;curved&quot;:0,&quot;rounded&quot;:0};" vertex="1" parent="1">
          <mxGeometry x="1140" y="670" width="10" height="60" as="geometry" />
        </mxCell>
        <mxCell id="SKgXmb6KjHLhrc9L7J1O-31" value="" style="endArrow=none;dashed=1;html=1;rounded=0;" edge="1" parent="1">
          <mxGeometry width="50" height="50" relative="1" as="geometry">
            <mxPoint x="1145" y="970" as="sourcePoint" />
            <mxPoint x="1145" y="70" as="targetPoint" />
          </mxGeometry>
        </mxCell>
        <mxCell id="BkvkmUMkXavDiM1oEpL3-36" value="send email" style="html=1;verticalAlign=bottom;endArrow=block;elbow=horizontal;rounded=0;" parent="1" edge="1" target="SKgXmb6KjHLhrc9L7J1O-30" source="SKgXmb6KjHLhrc9L7J1O-28">
          <mxGeometry relative="1" as="geometry">
            <mxPoint x="735" y="690.29" as="sourcePoint" />
            <Array as="points" />
            <mxPoint x="875" y="690.29" as="targetPoint" />
          </mxGeometry>
        </mxCell>
        <mxCell id="BkvkmUMkXavDiM1oEpL3-37" value="result" style="html=1;verticalAlign=bottom;endArrow=open;dashed=1;endSize=8;edgeStyle=elbowEdgeStyle;elbow=vertical;curved=0;rounded=0;" parent="1" edge="1" target="SKgXmb6KjHLhrc9L7J1O-28" source="SKgXmb6KjHLhrc9L7J1O-30">
          <mxGeometry relative="1" as="geometry">
            <mxPoint x="735" y="710.29" as="targetPoint" />
            <Array as="points">
              <mxPoint x="1090" y="710" />
            </Array>
            <mxPoint x="875" y="710.29" as="sourcePoint" />
          </mxGeometry>
        </mxCell>
      </root>
    </mxGraphModel>
  </diagram>
</mxfile>
